<?xml version="1.0" standalone="no"?><svg xmlns:xlink="http://www.w3.org/1999/xlink" xmlns="http://www.w3.org/2000/svg" viewBox="0 0 1000 352.9346970889064" preserveAspectRatio="xMaxYMax slice"><g transform="scale(0.7493162489228579)"><rect x="0" y="0" width="1334.55" height="471.0176470588235" fill="#ffffff"/><rect x="0" y="0" width="78.50294117647059" height="78.50294117647059" fill="#ffffff"/><rect x="0" y="0" width="39.25" height="39.25" fill="#fdebbc"/><g transform="translate(0,0) scale(1.9625) rotate(0)"><path d="M10 5L5 0L0 5L5 10L0 15L5 20L10 15L15 20L20 15L15 10L20 5L15 0L10 5Z" fill="#f8bc22"/></g><rect x="39.25" y="0" width="39.25" height="39.25" fill="#cccfff"/><g transform="translate(39.25,0) scale(1.9625) rotate(0)"><path d="M10 5L5 0L0 5L5 10L0 15L5 20L10 15L15 20L20 15L15 10L20 5L15 0L10 5Z" fill="#e8eaff"/></g><rect x="0" y="39.25" width="39.25" height="39.25" fill="#fef5dd"/><g transform="translate(0,39.25) scale(1.9625) rotate(0)"><rect width="20" height="2" fill="#f8b712"/><rect y="4" width="20" height="2" fill="#f8b712"/><rect y="8" width="20" height="2" fill="#f8b712"/><rect y="12" width="20" height="2" fill="#f8b712"/><rect y="16" width="20" height="2" fill="#f8b712"/></g><rect x="39.25" y="39.25" width="39.25" height="39.25" fill="#6872ff"/><g transform="translate(39.25,39.25) scale(1.9625) rotate(0)"><path d="M10 0L20 10L10 20L0 10L10 0Z" fill="#9098ff"/></g><rect x="78.5" y="0" width="78.5" height="78.5" fill="#f9c43d"/><g transform="translate(78.5,0) scale(3.925) rotate(0)"><rect width="20" height="2" fill="#facb54"/><rect y="4" width="20" height="2" fill="#facb54"/><rect y="8" width="20" height="2" fill="#facb54"/><rect y="12" width="20" height="2" fill="#facb54"/><rect y="16" width="20" height="2" fill="#facb54"/></g><rect x="157.01" y="0" width="78.5" height="78.5" fill="#b9beff"/><g transform="translate(157.01,0) scale(3.925) rotate(0)"><path d="M10 0L20 10L10 20L0 10L10 0Z" fill="#f8c02f"/></g><rect x="235.51" y="0" width="78.5" height="78.5" fill="#b9bdff"/><g transform="translate(235.51,0) scale(3.925) rotate(0)"><path d="M10 5L5 0L0 5L5 10L0 15L5 20L10 15L15 20L20 15L15 10L20 5L15 0L10 5Z" fill="#fdedc4"/></g><rect x="314.01" y="0" width="78.5" height="78.5" fill="#fce6ae"/><g transform="translate(314.01,0) scale(3.925) rotate(0)"><path fill-rule="evenodd" clip-rule="evenodd" d="M10 20C15.5228 20 20 15.5228 20 10C20 4.47715 15.5228 0 10 0C4.47715 0 0 4.47715 0 10C0 15.5228 4.47715 20 10 20ZM10 17C13.866 17 17 13.866 17 10C17 6.13401 13.866 3 10 3C6.13401 3 3 6.13401 3 10C3 13.866 6.13401 17 10 17Z" fill="#f8be28"/></g><rect x="392.51" y="0" width="78.5" height="78.5" fill="#e9eaff"/><g transform="translate(392.51,0) scale(3.925) rotate(0)"><rect width="20" height="2" fill="#c6caff"/><rect y="4" width="20" height="2" fill="#c6caff"/><rect y="8" width="20" height="2" fill="#c6caff"/><rect y="12" width="20" height="2" fill="#c6caff"/><rect y="16" width="20" height="2" fill="#c6caff"/></g><rect x="471.02" y="0" width="78.5" height="78.5" fill="#646eff"/><g transform="translate(471.02,0) scale(3.925) rotate(0)"><path d="M10 0L20 10L10 20L0 10L10 0Z" fill="#f9c746"/></g><rect x="549.5205882352941" y="0" width="78.50294117647059" height="78.50294117647059" fill="#ffffff"/><rect x="549.52" y="0" width="39.25" height="39.25" fill="#7881ff"/><g transform="translate(549.52,0) scale(1.9625) rotate(0)"><rect width="20" height="2" fill="#fce6ac"/><rect y="4" width="20" height="2" fill="#fce6ac"/><rect y="8" width="20" height="2" fill="#fce6ac"/><rect y="12" width="20" height="2" fill="#fce6ac"/><rect y="16" width="20" height="2" fill="#fce6ac"/></g><rect x="588.77" y="0" width="39.25" height="39.25" fill="#646eff"/><g transform="translate(588.77,0) scale(1.9625) rotate(0)"><path d="M10 5L5 0L0 5L5 10L0 15L5 20L10 15L15 20L20 15L15 10L20 5L15 0L10 5Z" fill="#f9c542"/></g><rect x="549.52" y="39.25" width="39.25" height="39.25" fill="#727bff"/><g transform="translate(549.52,39.25) scale(1.9625) rotate(0)"><path fill-rule="evenodd" clip-rule="evenodd" d="M10 20C15.5228 20 20 15.5228 20 10C20 4.47715 15.5228 0 10 0C4.47715 0 0 4.47715 0 10C0 15.5228 4.47715 20 10 20ZM10 17C13.866 17 17 13.866 17 10C17 6.13401 13.866 3 10 3C6.13401 3 3 6.13401 3 10C3 13.866 6.13401 17 10 17Z" fill="#424eff"/></g><rect x="588.77" y="39.25" width="39.25" height="39.25" fill="#f8b713"/><g transform="translate(588.77,39.25) scale(1.9625) rotate(0)"><path d="M10 0L20 10L10 20L0 10L10 0Z" fill="#c4c8ff"/></g><rect x="628.02" y="0" width="78.5" height="78.5" fill="#3e4aff"/><g transform="translate(628.02,0) scale(3.925) rotate(0)"><path d="M10 5L5 0L0 5L5 10L0 15L5 20L10 15L15 20L20 15L15 10L20 5L15 0L10 5Z" fill="#5e68ff"/></g><rect x="706.5264705882353" y="0" width="78.50294117647059" height="78.50294117647059" fill="#ffffff"/><rect x="706.53" y="0" width="39.25" height="39.25" fill="#5e68ff"/><g transform="translate(706.53,0) scale(1.9625) rotate(0)"><path d="M10 0L20 10L10 20L0 10L10 0Z" fill="#dbddff"/></g><rect x="745.78" y="0" width="39.25" height="39.25" fill="#fbdc8c"/><g transform="translate(745.78,0) scale(1.9625) rotate(0)"><path fill-rule="evenodd" clip-rule="evenodd" d="M10 20C15.5228 20 20 15.5228 20 10C20 4.47715 15.5228 0 10 0C4.47715 0 0 4.47715 0 10C0 15.5228 4.47715 20 10 20ZM10 17C13.866 17 17 13.866 17 10C17 6.13401 13.866 3 10 3C6.13401 3 3 6.13401 3 10C3 13.866 6.13401 17 10 17Z" fill="#fad36d"/></g><rect x="706.53" y="39.25" width="39.25" height="39.25" fill="#fcde91"/><g transform="translate(706.53,39.25) scale(1.9625) rotate(0)"><path d="M10 0L20 10L10 20L0 10L10 0Z" fill="#fad065"/></g><rect x="745.78" y="39.25" width="39.25" height="39.25" fill="#f9c132"/><g transform="translate(745.78,39.25) scale(1.9625) rotate(0)"><path fill-rule="evenodd" clip-rule="evenodd" d="M10 20C15.5228 20 20 15.5228 20 10C20 4.47715 15.5228 0 10 0C4.47715 0 0 4.47715 0 10C0 15.5228 4.47715 20 10 20ZM10 17C13.866 17 17 13.866 17 10C17 6.13401 13.866 3 10 3C6.13401 3 3 6.13401 3 10C3 13.866 6.13401 17 10 17Z" fill="#fad26b"/></g><rect x="785.03" y="0" width="78.5" height="78.5" fill="#4e59ff"/><g transform="translate(785.03,0) scale(3.925) rotate(0)"><path fill-rule="evenodd" clip-rule="evenodd" d="M10 20C15.5228 20 20 15.5228 20 10C20 4.47715 15.5228 0 10 0C4.47715 0 0 4.47715 0 10C0 15.5228 4.47715 20 10 20ZM10 17C13.866 17 17 13.866 17 10C17 6.13401 13.866 3 10 3C6.13401 3 3 6.13401 3 10C3 13.866 6.13401 17 10 17Z" fill="#fdedc5"/></g><rect x="863.53" y="0" width="78.5" height="78.5" fill="#5c67ff"/><g transform="translate(863.53,0) scale(3.925) rotate(0)"><path fill-rule="evenodd" clip-rule="evenodd" d="M10 20C15.5228 20 20 15.5228 20 10C20 4.47715 15.5228 0 10 0C4.47715 0 0 4.47715 0 10C0 15.5228 4.47715 20 10 20ZM10 17C13.866 17 17 13.866 17 10C17 6.13401 13.866 3 10 3C6.13401 3 3 6.13401 3 10C3 13.866 6.13401 17 10 17Z" fill="#f2f3ff"/></g><rect x="942.04" y="0" width="78.5" height="78.5" fill="#767fff"/><g transform="translate(942.04,0) scale(3.925) rotate(0)"><path fill-rule="evenodd" clip-rule="evenodd" d="M10 20C15.5228 20 20 15.5228 20 10C20 4.47715 15.5228 0 10 0C4.47715 0 0 4.47715 0 10C0 15.5228 4.47715 20 10 20ZM10 17C13.866 17 17 13.866 17 10C17 6.13401 13.866 3 10 3C6.13401 3 3 6.13401 3 10C3 13.866 6.13401 17 10 17Z" fill="#fcfcff"/></g><rect x="1020.54" y="0" width="78.5" height="78.5" fill="#fbdd90"/><g transform="translate(1020.54,0) scale(3.925) rotate(0)"><rect width="20" height="2" fill="#fef8e8"/><rect y="4" width="20" height="2" fill="#fef8e8"/><rect y="8" width="20" height="2" fill="#fef8e8"/><rect y="12" width="20" height="2" fill="#fef8e8"/><rect y="16" width="20" height="2" fill="#fef8e8"/></g><rect x="1099.0411764705882" y="0" width="78.50294117647059" height="78.50294117647059" fill="#ffffff"/><rect x="1099.04" y="0" width="39.25" height="39.25" fill="#fbd984"/><g transform="translate(1099.04,0) scale(1.9625) rotate(0)"><path d="M10 0L20 10L10 20L0 10L10 0Z" fill="#fad065"/></g><rect x="1138.29" y="0" width="39.25" height="39.25" fill="#848cff"/><g transform="translate(1138.29,0) scale(1.9625) rotate(0)"><rect width="20" height="2" fill="#2d3bff"/><rect y="4" width="20" height="2" fill="#2d3bff"/><rect y="8" width="20" height="2" fill="#2d3bff"/><rect y="12" width="20" height="2" fill="#2d3bff"/><rect y="16" width="20" height="2" fill="#2d3bff"/></g><rect x="1099.04" y="39.25" width="39.25" height="39.25" fill="#f8bc21"/><g transform="translate(1099.04,39.25) scale(1.9625) rotate(0)"><path fill-rule="evenodd" clip-rule="evenodd" d="M10 20C15.5228 20 20 15.5228 20 10C20 4.47715 15.5228 0 10 0C4.47715 0 0 4.47715 0 10C0 15.5228 4.47715 20 10 20ZM10 17C13.866 17 17 13.866 17 10C17 6.13401 13.866 3 10 3C6.13401 3 3 6.13401 3 10C3 13.866 6.13401 17 10 17Z" fill="#a3a9ff"/></g><rect x="1138.29" y="39.25" width="39.25" height="39.25" fill="#3644ff"/><g transform="translate(1138.29,39.25) scale(1.9625) rotate(0)"><path fill-rule="evenodd" clip-rule="evenodd" d="M10 20C15.5228 20 20 15.5228 20 10C20 4.47715 15.5228 0 10 0C4.47715 0 0 4.47715 0 10C0 15.5228 4.47715 20 10 20ZM10 17C13.866 17 17 13.866 17 10C17 6.13401 13.866 3 10 3C6.13401 3 3 6.13401 3 10C3 13.866 6.13401 17 10 17Z" fill="#f9c748"/></g><rect x="1177.5441176470588" y="0" width="78.50294117647059" height="78.50294117647059" fill="#ffffff"/><rect x="1177.54" y="0" width="39.25" height="39.25" fill="#fcfdff"/><g transform="translate(1177.54,0) scale(1.9625) rotate(0)"><path fill-rule="evenodd" clip-rule="evenodd" d="M10 20C15.5228 20 20 15.5228 20 10C20 4.47715 15.5228 0 10 0C4.47715 0 0 4.47715 0 10C0 15.5228 4.47715 20 10 20ZM10 17C13.866 17 17 13.866 17 10C17 6.13401 13.866 3 10 3C6.13401 3 3 6.13401 3 10C3 13.866 6.13401 17 10 17Z" fill="#fad065"/></g><rect x="1216.8" y="0" width="39.25" height="39.25" fill="#fdedc4"/><g transform="translate(1216.8,0) scale(1.9625) rotate(0)"><path d="M10 5L5 0L0 5L5 10L0 15L5 20L10 15L15 20L20 15L15 10L20 5L15 0L10 5Z" fill="#adb2ff"/></g><rect x="1177.54" y="39.25" width="39.25" height="39.25" fill="#fef5dd"/><g transform="translate(1177.54,39.25) scale(1.9625) rotate(0)"><path d="M10 5L5 0L0 5L5 10L0 15L5 20L10 15L15 20L20 15L15 10L20 5L15 0L10 5Z" fill="#a4aaff"/></g><rect x="1216.8" y="39.25" width="39.25" height="39.25" fill="#dbdeff"/><g transform="translate(1216.8,39.25) scale(1.9625) rotate(0)"><path fill-rule="evenodd" clip-rule="evenodd" d="M10 20C15.5228 20 20 15.5228 20 10C20 4.47715 15.5228 0 10 0C4.47715 0 0 4.47715 0 10C0 15.5228 4.47715 20 10 20ZM10 17C13.866 17 17 13.866 17 10C17 6.13401 13.866 3 10 3C6.13401 3 3 6.13401 3 10C3 13.866 6.13401 17 10 17Z" fill="#858dff"/></g><rect x="1256.05" y="0" width="78.5" height="78.5" fill="#f9c748"/><g transform="translate(1256.05,0) scale(3.925) rotate(0)"><rect width="20" height="2" fill="#3643ff"/><rect y="4" width="20" height="2" fill="#3643ff"/><rect y="8" width="20" height="2" fill="#3643ff"/><rect y="12" width="20" height="2" fill="#3643ff"/><rect y="16" width="20" height="2" fill="#3643ff"/></g><rect x="0" y="78.50294117647059" width="78.50294117647059" height="78.50294117647059" fill="#ffffff"/><rect x="0" y="78.5" width="39.25" height="39.25" fill="#fef2d5"/><g transform="translate(0,78.5) scale(1.9625) rotate(0)"><path d="M10 0L20 10L10 20L0 10L10 0Z" fill="#7881ff"/></g><rect x="39.25" y="78.5" width="39.25" height="39.25" fill="#fad066"/><g transform="translate(39.25,78.5) scale(1.9625) rotate(0)"><path d="M10 0L20 10L10 20L0 10L10 0Z" fill="#3441ff"/></g><rect x="0" y="117.75" width="39.25" height="39.25" fill="#b0b5ff"/><g transform="translate(0,117.75) scale(1.9625) rotate(0)"><path fill-rule="evenodd" clip-rule="evenodd" d="M10 20C15.5228 20 20 15.5228 20 10C20 4.47715 15.5228 0 10 0C4.47715 0 0 4.47715 0 10C0 15.5228 4.47715 20 10 20ZM10 17C13.866 17 17 13.866 17 10C17 6.13401 13.866 3 10 3C6.13401 3 3 6.13401 3 10C3 13.866 6.13401 17 10 17Z" fill="#a3a9ff"/></g><rect x="39.25" y="117.75" width="39.25" height="39.25" fill="#fde9b8"/><g transform="translate(39.25,117.75) scale(1.9625) rotate(0)"><rect width="20" height="2" fill="#fbd77a"/><rect y="4" width="20" height="2" fill="#fbd77a"/><rect y="8" width="20" height="2" fill="#fbd77a"/><rect y="12" width="20" height="2" fill="#fbd77a"/><rect y="16" width="20" height="2" fill="#fbd77a"/></g><rect x="78.5" y="78.5" width="78.5" height="78.5" fill="#4753ff"/><g transform="translate(78.5,78.5) scale(3.925) rotate(0)"><path fill-rule="evenodd" clip-rule="evenodd" d="M10 20C15.5228 20 20 15.5228 20 10C20 4.47715 15.5228 0 10 0C4.47715 0 0 4.47715 0 10C0 15.5228 4.47715 20 10 20ZM10 17C13.866 17 17 13.866 17 10C17 6.13401 13.866 3 10 3C6.13401 3 3 6.13401 3 10C3 13.866 6.13401 17 10 17Z" fill="#b2b7ff"/></g><rect x="157.01" y="78.5" width="78.5" height="78.5" fill="#f9c746"/><g transform="translate(157.01,78.5) scale(3.925) rotate(0)"><rect width="20" height="2" fill="#fbfcff"/><rect y="4" width="20" height="2" fill="#fbfcff"/><rect y="8" width="20" height="2" fill="#fbfcff"/><rect y="12" width="20" height="2" fill="#fbfcff"/><rect y="16" width="20" height="2" fill="#fbfcff"/></g><rect x="235.51" y="78.5" width="78.5" height="78.5" fill="#4450ff"/><g transform="translate(235.51,78.5) scale(3.925) rotate(0)"><path d="M10 0L20 10L10 20L0 10L10 0Z" fill="#fdefca"/></g><rect x="314.01176470588234" y="78.50294117647059" width="78.50294117647059" height="78.50294117647059" fill="#ffffff"/><rect x="314.01" y="78.5" width="39.25" height="39.25" fill="#ecedff"/><g transform="translate(314.01,78.5) scale(1.9625) rotate(0)"><path d="M10 5L5 0L0 5L5 10L0 15L5 20L10 15L15 20L20 15L15 10L20 5L15 0L10 5Z" fill="#6670ff"/></g><rect x="353.26" y="78.5" width="39.25" height="39.25" fill="#a6acff"/><g transform="translate(353.26,78.5) scale(1.9625) rotate(0)"><rect width="20" height="2" fill="#fef3d6"/><rect y="4" width="20" height="2" fill="#fef3d6"/><rect y="8" width="20" height="2" fill="#fef3d6"/><rect y="12" width="20" height="2" fill="#fef3d6"/><rect y="16" width="20" height="2" fill="#fef3d6"/></g><rect x="314.01" y="117.75" width="39.25" height="39.25" fill="#d1d4ff"/><g transform="translate(314.01,117.75) scale(1.9625) rotate(0)"><path d="M10 5L5 0L0 5L5 10L0 15L5 20L10 15L15 20L20 15L15 10L20 5L15 0L10 5Z" fill="#facf63"/></g><rect x="353.26" y="117.75" width="39.25" height="39.25" fill="#fce19e"/><g transform="translate(353.26,117.75) scale(1.9625) rotate(0)"><path d="M10 5L5 0L0 5L5 10L0 15L5 20L10 15L15 20L20 15L15 10L20 5L15 0L10 5Z" fill="#a8aeff"/></g><rect x="392.5147058823529" y="78.50294117647059" width="78.50294117647059" height="78.50294117647059" fill="#ffffff"/><rect x="392.51" y="78.5" width="39.25" height="39.25" fill="#facb53"/><g transform="translate(392.51,78.5) scale(1.9625) rotate(0)"><path d="M10 0L20 10L10 20L0 10L10 0Z" fill="#c8cbff"/></g><rect x="431.77" y="78.5" width="39.25" height="39.25" fill="#fcdd91"/><g transform="translate(431.77,78.5) scale(1.9625) rotate(0)"><path d="M10 0L20 10L10 20L0 10L10 0Z" fill="#fce7af"/></g><rect x="392.51" y="117.75" width="39.25" height="39.25" fill="#6e77ff"/><g transform="translate(392.51,117.75) scale(1.9625) rotate(0)"><path fill-rule="evenodd" clip-rule="evenodd" d="M10 20C15.5228 20 20 15.5228 20 10C20 4.47715 15.5228 0 10 0C4.47715 0 0 4.47715 0 10C0 15.5228 4.47715 20 10 20ZM10 17C13.866 17 17 13.866 17 10C17 6.13401 13.866 3 10 3C6.13401 3 3 6.13401 3 10C3 13.866 6.13401 17 10 17Z" fill="#d5d8ff"/></g><rect x="431.77" y="117.75" width="39.25" height="39.25" fill="#9aa0ff"/><g transform="translate(431.77,117.75) scale(1.9625) rotate(0)"><rect width="20" height="2" fill="#fdedc2"/><rect y="4" width="20" height="2" fill="#fdedc2"/><rect y="8" width="20" height="2" fill="#fdedc2"/><rect y="12" width="20" height="2" fill="#fdedc2"/><rect y="16" width="20" height="2" fill="#fdedc2"/></g><rect x="471.02" y="78.5" width="78.5" height="78.5" fill="#f8be28"/><g transform="translate(471.02,78.5) scale(3.925) rotate(0)"><rect width="20" height="2" fill="#f5f6ff"/><rect y="4" width="20" height="2" fill="#f5f6ff"/><rect y="8" width="20" height="2" fill="#f5f6ff"/><rect y="12" width="20" height="2" fill="#f5f6ff"/><rect y="16" width="20" height="2" fill="#f5f6ff"/></g><rect x="549.52" y="78.5" width="78.5" height="78.5" fill="#fffefb"/><g transform="translate(549.52,78.5) scale(3.925) rotate(0)"><path d="M10 5L5 0L0 5L5 10L0 15L5 20L10 15L15 20L20 15L15 10L20 5L15 0L10 5Z" fill="#f9c645"/></g><rect x="628.02" y="78.5" width="78.5" height="78.5" fill="#fce098"/><g transform="translate(628.02,78.5) scale(3.925) rotate(0)"><path d="M10 5L5 0L0 5L5 10L0 15L5 20L10 15L15 20L20 15L15 10L20 5L15 0L10 5Z" fill="#fbd574"/></g><rect x="706.53" y="78.5" width="78.5" height="78.5" fill="#f8b816"/><g transform="translate(706.53,78.5) scale(3.925) rotate(0)"><rect width="20" height="2" fill="#8991ff"/><rect y="4" width="20" height="2" fill="#8991ff"/><rect y="8" width="20" height="2" fill="#8991ff"/><rect y="12" width="20" height="2" fill="#8991ff"/><rect y="16" width="20" height="2" fill="#8991ff"/></g><rect x="785.03" y="78.5" width="78.5" height="78.5" fill="#4451ff"/><g transform="translate(785.03,78.5) scale(3.925) rotate(0)"><path d="M10 0L20 10L10 20L0 10L10 0Z" fill="#9098ff"/></g><rect x="863.53" y="78.5" width="78.5" height="78.5" fill="#fad169"/><g transform="translate(863.53,78.5) scale(3.925) rotate(0)"><path d="M10 0L20 10L10 20L0 10L10 0Z" fill="#fbd983"/></g><rect x="942.04" y="78.5" width="78.5" height="78.5" fill="#fef4dc"/><g transform="translate(942.04,78.5) scale(3.925) rotate(0)"><path d="M10 0L20 10L10 20L0 10L10 0Z" fill="#3946ff"/></g><rect x="1020.54" y="78.5" width="78.5" height="78.5" fill="#fafaff"/><g transform="translate(1020.54,78.5) scale(3.925) rotate(0)"><path fill-rule="evenodd" clip-rule="evenodd" d="M10 20C15.5228 20 20 15.5228 20 10C20 4.47715 15.5228 0 10 0C4.47715 0 0 4.47715 0 10C0 15.5228 4.47715 20 10 20ZM10 17C13.866 17 17 13.866 17 10C17 6.13401 13.866 3 10 3C6.13401 3 3 6.13401 3 10C3 13.866 6.13401 17 10 17Z" fill="#858dff"/></g><rect x="1099.04" y="78.5" width="78.5" height="78.5" fill="#fad26a"/><g transform="translate(1099.04,78.5) scale(3.925) rotate(0)"><path d="M10 5L5 0L0 5L5 10L0 15L5 20L10 15L15 20L20 15L15 10L20 5L15 0L10 5Z" fill="#facf61"/></g><rect x="1177.54" y="78.5" width="78.5" height="78.5" fill="#fffdf9"/><g transform="translate(1177.54,78.5) scale(3.925) rotate(0)"><rect width="20" height="2" fill="#fbd473"/><rect y="4" width="20" height="2" fill="#fbd473"/><rect y="8" width="20" height="2" fill="#fbd473"/><rect y="12" width="20" height="2" fill="#fbd473"/><rect y="16" width="20" height="2" fill="#fbd473"/></g><rect x="1256.05" y="78.5" width="78.5" height="78.5" fill="#d2d5ff"/><g transform="translate(1256.05,78.5) scale(3.925) rotate(0)"><rect width="20" height="2" fill="#face5f"/><rect y="4" width="20" height="2" fill="#face5f"/><rect y="8" width="20" height="2" fill="#face5f"/><rect y="12" width="20" height="2" fill="#face5f"/><rect y="16" width="20" height="2" fill="#face5f"/></g><rect x="0" y="157.00588235294117" width="78.50294117647059" height="78.50294117647059" fill="#ffffff"/><rect x="0" y="157.01" width="39.25" height="39.25" fill="#4f5bff"/><g transform="translate(0,157.01) scale(1.9625) rotate(0)"><path d="M10 0L20 10L10 20L0 10L10 0Z" fill="#fde8b2"/></g><rect x="39.25" y="157.01" width="39.25" height="39.25" fill="#fcdf97"/><g transform="translate(39.25,157.01) scale(1.9625) rotate(0)"><path fill-rule="evenodd" clip-rule="evenodd" d="M10 20C15.5228 20 20 15.5228 20 10C20 4.47715 15.5228 0 10 0C4.47715 0 0 4.47715 0 10C0 15.5228 4.47715 20 10 20ZM10 17C13.866 17 17 13.866 17 10C17 6.13401 13.866 3 10 3C6.13401 3 3 6.13401 3 10C3 13.866 6.13401 17 10 17Z" fill="#fef1d1"/></g><rect x="0" y="196.26" width="39.25" height="39.25" fill="#737cff"/><g transform="translate(0,196.26) scale(1.9625) rotate(0)"><rect width="20" height="2" fill="#fde8b2"/><rect y="4" width="20" height="2" fill="#fde8b2"/><rect y="8" width="20" height="2" fill="#fde8b2"/><rect y="12" width="20" height="2" fill="#fde8b2"/><rect y="16" width="20" height="2" fill="#fde8b2"/></g><rect x="39.25" y="196.26" width="39.25" height="39.25" fill="#4d59ff"/><g transform="translate(39.25,196.26) scale(1.9625) rotate(0)"><path d="M10 0L20 10L10 20L0 10L10 0Z" fill="#f8bc24"/></g><rect x="78.50294117647059" y="157.00588235294117" width="78.50294117647059" height="78.50294117647059" fill="#ffffff"/><rect x="78.5" y="157.01" width="39.25" height="39.25" fill="#fce6ac"/><g transform="translate(78.5,157.01) scale(1.9625) rotate(0)"><path d="M10 5L5 0L0 5L5 10L0 15L5 20L10 15L15 20L20 15L15 10L20 5L15 0L10 5Z" fill="#c3c7ff"/></g><rect x="117.75" y="157.01" width="39.25" height="39.25" fill="#fcdd90"/><g transform="translate(117.75,157.01) scale(1.9625) rotate(0)"><path d="M10 0L20 10L10 20L0 10L10 0Z" fill="#8d94ff"/></g><rect x="78.5" y="196.26" width="39.25" height="39.25" fill="#c5c9ff"/><g transform="translate(78.5,196.26) scale(1.9625) rotate(0)"><rect width="20" height="2" fill="#f9ca4f"/><rect y="4" width="20" height="2" fill="#f9ca4f"/><rect y="8" width="20" height="2" fill="#f9ca4f"/><rect y="12" width="20" height="2" fill="#f9ca4f"/><rect y="16" width="20" height="2" fill="#f9ca4f"/></g><rect x="117.75" y="196.26" width="39.25" height="39.25" fill="#fcdf97"/><g transform="translate(117.75,196.26) scale(1.9625) rotate(0)"><rect width="20" height="2" fill="#fef5e0"/><rect y="4" width="20" height="2" fill="#fef5e0"/><rect y="8" width="20" height="2" fill="#fef5e0"/><rect y="12" width="20" height="2" fill="#fef5e0"/><rect y="16" width="20" height="2" fill="#fef5e0"/></g><rect x="157.01" y="157.01" width="78.5" height="78.5" fill="#c5c9ff"/><g transform="translate(157.01,157.01) scale(3.925) rotate(0)"><path d="M10 0L20 10L10 20L0 10L10 0Z" fill="#f9c43d"/></g><rect x="235.51" y="157.01" width="78.5" height="78.5" fill="#5b66ff"/><g transform="translate(235.51,157.01) scale(3.925) rotate(0)"><path d="M10 5L5 0L0 5L5 10L0 15L5 20L10 15L15 20L20 15L15 10L20 5L15 0L10 5Z" fill="#aeb3ff"/></g><rect x="314.01" y="157.01" width="78.5" height="78.5" fill="#fef9ea"/><g transform="translate(314.01,157.01) scale(3.925) rotate(0)"><path d="M10 5L5 0L0 5L5 10L0 15L5 20L10 15L15 20L20 15L15 10L20 5L15 0L10 5Z" fill="#a3a9ff"/></g><rect x="392.51" y="157.01" width="78.5" height="78.5" fill="#3744ff"/><g transform="translate(392.51,157.01) scale(3.925) rotate(0)"><rect width="20" height="2" fill="#facb54"/><rect y="4" width="20" height="2" fill="#facb54"/><rect y="8" width="20" height="2" fill="#facb54"/><rect y="12" width="20" height="2" fill="#facb54"/><rect y="16" width="20" height="2" fill="#facb54"/></g><rect x="471.0176470588235" y="157.00588235294117" width="78.50294117647059" height="78.50294117647059" fill="#ffffff"/><rect x="471.02" y="157.01" width="39.25" height="39.25" fill="#838bff"/><g transform="translate(471.02,157.01) scale(1.9625) rotate(0)"><path d="M10 5L5 0L0 5L5 10L0 15L5 20L10 15L15 20L20 15L15 10L20 5L15 0L10 5Z" fill="#f4f5ff"/></g><rect x="510.27" y="157.01" width="39.25" height="39.25" fill="#fad066"/><g transform="translate(510.27,157.01) scale(1.9625) rotate(0)"><path d="M10 0L20 10L10 20L0 10L10 0Z" fill="#fbda86"/></g><rect x="471.02" y="196.26" width="39.25" height="39.25" fill="#facd5b"/><g transform="translate(471.02,196.26) scale(1.9625) rotate(0)"><rect width="20" height="2" fill="#7d86ff"/><rect y="4" width="20" height="2" fill="#7d86ff"/><rect y="8" width="20" height="2" fill="#7d86ff"/><rect y="12" width="20" height="2" fill="#7d86ff"/><rect y="16" width="20" height="2" fill="#7d86ff"/></g><rect x="510.27" y="196.26" width="39.25" height="39.25" fill="#e0e2ff"/><g transform="translate(510.27,196.26) scale(1.9625) rotate(0)"><rect width="20" height="2" fill="#d1d4ff"/><rect y="4" width="20" height="2" fill="#d1d4ff"/><rect y="8" width="20" height="2" fill="#d1d4ff"/><rect y="12" width="20" height="2" fill="#d1d4ff"/><rect y="16" width="20" height="2" fill="#d1d4ff"/></g><rect x="549.52" y="157.01" width="78.5" height="78.5" fill="#999fff"/><g transform="translate(549.52,157.01) scale(3.925) rotate(0)"><path fill-rule="evenodd" clip-rule="evenodd" d="M10 20C15.5228 20 20 15.5228 20 10C20 4.47715 15.5228 0 10 0C4.47715 0 0 4.47715 0 10C0 15.5228 4.47715 20 10 20ZM10 17C13.866 17 17 13.866 17 10C17 6.13401 13.866 3 10 3C6.13401 3 3 6.13401 3 10C3 13.866 6.13401 17 10 17Z" fill="#878fff"/></g><rect x="628.02" y="157.01" width="78.5" height="78.5" fill="#717bff"/><g transform="translate(628.02,157.01) scale(3.925) rotate(0)"><rect width="20" height="2" fill="#cdd0ff"/><rect y="4" width="20" height="2" fill="#cdd0ff"/><rect y="8" width="20" height="2" fill="#cdd0ff"/><rect y="12" width="20" height="2" fill="#cdd0ff"/><rect y="16" width="20" height="2" fill="#cdd0ff"/></g><rect x="706.5264705882353" y="157.00588235294117" width="78.50294117647059" height="78.50294117647059" fill="#ffffff"/><rect x="706.53" y="157.01" width="39.25" height="39.25" fill="#2d3aff"/><g transform="translate(706.53,157.01) scale(1.9625) rotate(0)"><path d="M10 5L5 0L0 5L5 10L0 15L5 20L10 15L15 20L20 15L15 10L20 5L15 0L10 5Z" fill="#facc58"/></g><rect x="745.78" y="157.01" width="39.25" height="39.25" fill="#facd5a"/><g transform="translate(745.78,157.01) scale(1.9625) rotate(0)"><path d="M10 5L5 0L0 5L5 10L0 15L5 20L10 15L15 20L20 15L15 10L20 5L15 0L10 5Z" fill="#fffdf8"/></g><rect x="706.53" y="196.26" width="39.25" height="39.25" fill="#f6f7ff"/><g transform="translate(706.53,196.26) scale(1.9625) rotate(0)"><path fill-rule="evenodd" clip-rule="evenodd" d="M10 20C15.5228 20 20 15.5228 20 10C20 4.47715 15.5228 0 10 0C4.47715 0 0 4.47715 0 10C0 15.5228 4.47715 20 10 20ZM10 17C13.866 17 17 13.866 17 10C17 6.13401 13.866 3 10 3C6.13401 3 3 6.13401 3 10C3 13.866 6.13401 17 10 17Z" fill="#fef5df"/></g><rect x="745.78" y="196.26" width="39.25" height="39.25" fill="#fad26b"/><g transform="translate(745.78,196.26) scale(1.9625) rotate(0)"><rect width="20" height="2" fill="#6771ff"/><rect y="4" width="20" height="2" fill="#6771ff"/><rect y="8" width="20" height="2" fill="#6771ff"/><rect y="12" width="20" height="2" fill="#6771ff"/><rect y="16" width="20" height="2" fill="#6771ff"/></g><rect x="785.03" y="157.01" width="78.5" height="78.5" fill="#fdebbe"/><g transform="translate(785.03,157.01) scale(3.925) rotate(0)"><path d="M10 5L5 0L0 5L5 10L0 15L5 20L10 15L15 20L20 15L15 10L20 5L15 0L10 5Z" fill="#f9ca50"/></g><rect x="863.53" y="157.01" width="78.5" height="78.5" fill="#f9ca50"/><g transform="translate(863.53,157.01) scale(3.925) rotate(0)"><rect width="20" height="2" fill="#fcdf97"/><rect y="4" width="20" height="2" fill="#fcdf97"/><rect y="8" width="20" height="2" fill="#fcdf97"/><rect y="12" width="20" height="2" fill="#fcdf97"/><rect y="16" width="20" height="2" fill="#fcdf97"/></g><rect x="942.04" y="157.01" width="78.5" height="78.5" fill="#fce19c"/><g transform="translate(942.04,157.01) scale(3.925) rotate(0)"><path fill-rule="evenodd" clip-rule="evenodd" d="M10 20C15.5228 20 20 15.5228 20 10C20 4.47715 15.5228 0 10 0C4.47715 0 0 4.47715 0 10C0 15.5228 4.47715 20 10 20ZM10 17C13.866 17 17 13.866 17 10C17 6.13401 13.866 3 10 3C6.13401 3 3 6.13401 3 10C3 13.866 6.13401 17 10 17Z" fill="#f8c02f"/></g><rect x="1020.5382352941176" y="157.00588235294117" width="78.50294117647059" height="78.50294117647059" fill="#ffffff"/><rect x="1020.54" y="157.01" width="39.25" height="39.25" fill="#ecedff"/><g transform="translate(1020.54,157.01) scale(1.9625) rotate(0)"><path d="M10 0L20 10L10 20L0 10L10 0Z" fill="#e9ebff"/></g><rect x="1059.79" y="157.01" width="39.25" height="39.25" fill="#535eff"/><g transform="translate(1059.79,157.01) scale(1.9625) rotate(0)"><path d="M10 0L20 10L10 20L0 10L10 0Z" fill="#f9c645"/></g><rect x="1020.54" y="196.26" width="39.25" height="39.25" fill="#fbd880"/><g transform="translate(1020.54,196.26) scale(1.9625) rotate(0)"><path fill-rule="evenodd" clip-rule="evenodd" d="M10 20C15.5228 20 20 15.5228 20 10C20 4.47715 15.5228 0 10 0C4.47715 0 0 4.47715 0 10C0 15.5228 4.47715 20 10 20ZM10 17C13.866 17 17 13.866 17 10C17 6.13401 13.866 3 10 3C6.13401 3 3 6.13401 3 10C3 13.866 6.13401 17 10 17Z" fill="#e8e9ff"/></g><rect x="1059.79" y="196.26" width="39.25" height="39.25" fill="#f9c43f"/><g transform="translate(1059.79,196.26) scale(1.9625) rotate(0)"><path d="M10 0L20 10L10 20L0 10L10 0Z" fill="#fdfdff"/></g><rect x="1099.04" y="157.01" width="78.5" height="78.5" fill="#f8bd26"/><g transform="translate(1099.04,157.01) scale(3.925) rotate(0)"><path d="M10 5L5 0L0 5L5 10L0 15L5 20L10 15L15 20L20 15L15 10L20 5L15 0L10 5Z" fill="#fef6e2"/></g><rect x="1177.54" y="157.01" width="78.5" height="78.5" fill="#7e86ff"/><g transform="translate(1177.54,157.01) scale(3.925) rotate(0)"><rect width="20" height="2" fill="#facc57"/><rect y="4" width="20" height="2" fill="#facc57"/><rect y="8" width="20" height="2" fill="#facc57"/><rect y="12" width="20" height="2" fill="#facc57"/><rect y="16" width="20" height="2" fill="#facc57"/></g><rect x="1256.05" y="157.01" width="78.5" height="78.5" fill="#fad166"/><g transform="translate(1256.05,157.01) scale(3.925) rotate(0)"><path d="M10 0L20 10L10 20L0 10L10 0Z" fill="#f8b815"/></g><rect x="0" y="235.51" width="78.5" height="78.5" fill="#e1e3ff"/><g transform="translate(0,235.51) scale(3.925) rotate(0)"><rect width="20" height="2" fill="#fbd87e"/><rect y="4" width="20" height="2" fill="#fbd87e"/><rect y="8" width="20" height="2" fill="#fbd87e"/><rect y="12" width="20" height="2" fill="#fbd87e"/><rect y="16" width="20" height="2" fill="#fbd87e"/></g><rect x="78.5" y="235.51" width="78.5" height="78.5" fill="#e9ebff"/><g transform="translate(78.5,235.51) scale(3.925) rotate(0)"><path d="M10 0L20 10L10 20L0 10L10 0Z" fill="#f8ba1c"/></g><rect x="157.01" y="235.51" width="78.5" height="78.5" fill="#3643ff"/><g transform="translate(157.01,235.51) scale(3.925) rotate(0)"><path d="M10 5L5 0L0 5L5 10L0 15L5 20L10 15L15 20L20 15L15 10L20 5L15 0L10 5Z" fill="#fce4a7"/></g><rect x="235.50882352941176" y="235.50882352941176" width="78.50294117647059" height="78.50294117647059" fill="#ffffff"/><rect x="235.51" y="235.51" width="39.25" height="39.25" fill="#4854ff"/><g transform="translate(235.51,235.51) scale(1.9625) rotate(0)"><path fill-rule="evenodd" clip-rule="evenodd" d="M10 20C15.5228 20 20 15.5228 20 10C20 4.47715 15.5228 0 10 0C4.47715 0 0 4.47715 0 10C0 15.5228 4.47715 20 10 20ZM10 17C13.866 17 17 13.866 17 10C17 6.13401 13.866 3 10 3C6.13401 3 3 6.13401 3 10C3 13.866 6.13401 17 10 17Z" fill="#fef2d3"/></g><rect x="274.76" y="235.51" width="39.25" height="39.25" fill="#fdefcb"/><g transform="translate(274.76,235.51) scale(1.9625) rotate(0)"><path d="M10 0L20 10L10 20L0 10L10 0Z" fill="#f9c84b"/></g><rect x="235.51" y="274.76" width="39.25" height="39.25" fill="#8e96ff"/><g transform="translate(235.51,274.76) scale(1.9625) rotate(0)"><path d="M10 5L5 0L0 5L5 10L0 15L5 20L10 15L15 20L20 15L15 10L20 5L15 0L10 5Z" fill="#aaafff"/></g><rect x="274.76" y="274.76" width="39.25" height="39.25" fill="#cccfff"/><g transform="translate(274.76,274.76) scale(1.9625) rotate(0)"><rect width="20" height="2" fill="#f9c644"/><rect y="4" width="20" height="2" fill="#f9c644"/><rect y="8" width="20" height="2" fill="#f9c644"/><rect y="12" width="20" height="2" fill="#f9c644"/><rect y="16" width="20" height="2" fill="#f9c644"/></g><rect x="314.01" y="235.51" width="78.5" height="78.5" fill="#757eff"/><g transform="translate(314.01,235.51) scale(3.925) rotate(0)"><path d="M10 5L5 0L0 5L5 10L0 15L5 20L10 15L15 20L20 15L15 10L20 5L15 0L10 5Z" fill="#f7b304"/></g><rect x="392.5147058823529" y="235.50882352941176" width="78.50294117647059" height="78.50294117647059" fill="#ffffff"/><rect x="392.51" y="235.51" width="39.25" height="39.25" fill="#facf62"/><g transform="translate(392.51,235.51) scale(1.9625) rotate(0)"><rect width="20" height="2" fill="#fef3d7"/><rect y="4" width="20" height="2" fill="#fef3d7"/><rect y="8" width="20" height="2" fill="#fef3d7"/><rect y="12" width="20" height="2" fill="#fef3d7"/><rect y="16" width="20" height="2" fill="#fef3d7"/></g><rect x="431.77" y="235.51" width="39.25" height="39.25" fill="#d3d6ff"/><g transform="translate(431.77,235.51) scale(1.9625) rotate(0)"><path fill-rule="evenodd" clip-rule="evenodd" d="M10 20C15.5228 20 20 15.5228 20 10C20 4.47715 15.5228 0 10 0C4.47715 0 0 4.47715 0 10C0 15.5228 4.47715 20 10 20ZM10 17C13.866 17 17 13.866 17 10C17 6.13401 13.866 3 10 3C6.13401 3 3 6.13401 3 10C3 13.866 6.13401 17 10 17Z" fill="#fce098"/></g><rect x="392.51" y="274.76" width="39.25" height="39.25" fill="#9ea4ff"/><g transform="translate(392.51,274.76) scale(1.9625) rotate(0)"><path d="M10 5L5 0L0 5L5 10L0 15L5 20L10 15L15 20L20 15L15 10L20 5L15 0L10 5Z" fill="#3b47ff"/></g><rect x="431.77" y="274.76" width="39.25" height="39.25" fill="#fffdfa"/><g transform="translate(431.77,274.76) scale(1.9625) rotate(0)"><path fill-rule="evenodd" clip-rule="evenodd" d="M10 20C15.5228 20 20 15.5228 20 10C20 4.47715 15.5228 0 10 0C4.47715 0 0 4.47715 0 10C0 15.5228 4.47715 20 10 20ZM10 17C13.866 17 17 13.866 17 10C17 6.13401 13.866 3 10 3C6.13401 3 3 6.13401 3 10C3 13.866 6.13401 17 10 17Z" fill="#d8dbff"/></g><rect x="471.02" y="235.51" width="78.5" height="78.5" fill="#f8b712"/><g transform="translate(471.02,235.51) scale(3.925) rotate(0)"><path d="M10 0L20 10L10 20L0 10L10 0Z" fill="#fef8e8"/></g><rect x="549.5205882352941" y="235.50882352941176" width="78.50294117647059" height="78.50294117647059" fill="#ffffff"/><rect x="549.52" y="235.51" width="39.25" height="39.25" fill="#2d3bff"/><g transform="translate(549.52,235.51) scale(1.9625) rotate(0)"><path d="M10 5L5 0L0 5L5 10L0 15L5 20L10 15L15 20L20 15L15 10L20 5L15 0L10 5Z" fill="#babeff"/></g><rect x="588.77" y="235.51" width="39.25" height="39.25" fill="#cacdff"/><g transform="translate(588.77,235.51) scale(1.9625) rotate(0)"><path fill-rule="evenodd" clip-rule="evenodd" d="M10 20C15.5228 20 20 15.5228 20 10C20 4.47715 15.5228 0 10 0C4.47715 0 0 4.47715 0 10C0 15.5228 4.47715 20 10 20ZM10 17C13.866 17 17 13.866 17 10C17 6.13401 13.866 3 10 3C6.13401 3 3 6.13401 3 10C3 13.866 6.13401 17 10 17Z" fill="#fdeab8"/></g><rect x="549.52" y="274.76" width="39.25" height="39.25" fill="#fefaef"/><g transform="translate(549.52,274.76) scale(1.9625) rotate(0)"><path d="M10 0L20 10L10 20L0 10L10 0Z" fill="#f9c33a"/></g><rect x="588.77" y="274.76" width="39.25" height="39.25" fill="#f9c849"/><g transform="translate(588.77,274.76) scale(1.9625) rotate(0)"><rect width="20" height="2" fill="#5863ff"/><rect y="4" width="20" height="2" fill="#5863ff"/><rect y="8" width="20" height="2" fill="#5863ff"/><rect y="12" width="20" height="2" fill="#5863ff"/><rect y="16" width="20" height="2" fill="#5863ff"/></g><rect x="628.02" y="235.51" width="78.5" height="78.5" fill="#facd5b"/><g transform="translate(628.02,235.51) scale(3.925) rotate(0)"><path d="M10 0L20 10L10 20L0 10L10 0Z" fill="#bec2ff"/></g><rect x="706.53" y="235.51" width="78.5" height="78.5" fill="#f3f4ff"/><g transform="translate(706.53,235.51) scale(3.925) rotate(0)"><rect width="20" height="2" fill="#fad169"/><rect y="4" width="20" height="2" fill="#fad169"/><rect y="8" width="20" height="2" fill="#fad169"/><rect y="12" width="20" height="2" fill="#fad169"/><rect y="16" width="20" height="2" fill="#fad169"/></g><rect x="785.03" y="235.51" width="78.5" height="78.5" fill="#fcfdff"/><g transform="translate(785.03,235.51) scale(3.925) rotate(0)"><path d="M10 5L5 0L0 5L5 10L0 15L5 20L10 15L15 20L20 15L15 10L20 5L15 0L10 5Z" fill="#b4b9ff"/></g><rect x="863.53" y="235.51" width="78.5" height="78.5" fill="#c6caff"/><g transform="translate(863.53,235.51) scale(3.925) rotate(0)"><path d="M10 5L5 0L0 5L5 10L0 15L5 20L10 15L15 20L20 15L15 10L20 5L15 0L10 5Z" fill="#4451ff"/></g><rect x="942.04" y="235.51" width="78.5" height="78.5" fill="#fffefc"/><g transform="translate(942.04,235.51) scale(3.925) rotate(0)"><rect width="20" height="2" fill="#fef1d0"/><rect y="4" width="20" height="2" fill="#fef1d0"/><rect y="8" width="20" height="2" fill="#fef1d0"/><rect y="12" width="20" height="2" fill="#fef1d0"/><rect y="16" width="20" height="2" fill="#fef1d0"/></g><rect x="1020.54" y="235.51" width="78.5" height="78.5" fill="#fdf0cd"/><g transform="translate(1020.54,235.51) scale(3.925) rotate(0)"><rect width="20" height="2" fill="#fde8b2"/><rect y="4" width="20" height="2" fill="#fde8b2"/><rect y="8" width="20" height="2" fill="#fde8b2"/><rect y="12" width="20" height="2" fill="#fde8b2"/><rect y="16" width="20" height="2" fill="#fde8b2"/></g><rect x="1099.04" y="235.51" width="78.5" height="78.5" fill="#9299ff"/><g transform="translate(1099.04,235.51) scale(3.925) rotate(0)"><rect width="20" height="2" fill="#d6d9ff"/><rect y="4" width="20" height="2" fill="#d6d9ff"/><rect y="8" width="20" height="2" fill="#d6d9ff"/><rect y="12" width="20" height="2" fill="#d6d9ff"/><rect y="16" width="20" height="2" fill="#d6d9ff"/></g><rect x="1177.5441176470588" y="235.50882352941176" width="78.50294117647059" height="78.50294117647059" fill="#ffffff"/><rect x="1177.54" y="235.51" width="39.25" height="39.25" fill="#fce4a7"/><g transform="translate(1177.54,235.51) scale(1.9625) rotate(0)"><path fill-rule="evenodd" clip-rule="evenodd" d="M10 20C15.5228 20 20 15.5228 20 10C20 4.47715 15.5228 0 10 0C4.47715 0 0 4.47715 0 10C0 15.5228 4.47715 20 10 20ZM10 17C13.866 17 17 13.866 17 10C17 6.13401 13.866 3 10 3C6.13401 3 3 6.13401 3 10C3 13.866 6.13401 17 10 17Z" fill="#fce2a0"/></g><rect x="1216.8" y="235.51" width="39.25" height="39.25" fill="#fffbf1"/><g transform="translate(1216.8,235.51) scale(1.9625) rotate(0)"><path d="M10 5L5 0L0 5L5 10L0 15L5 20L10 15L15 20L20 15L15 10L20 5L15 0L10 5Z" fill="#f8ba1b"/></g><rect x="1177.54" y="274.76" width="39.25" height="39.25" fill="#b4b9ff"/><g transform="translate(1177.54,274.76) scale(1.9625) rotate(0)"><path d="M10 0L20 10L10 20L0 10L10 0Z" fill="#fbdb8a"/></g><rect x="1216.8" y="274.76" width="39.25" height="39.25" fill="#c8cbff"/><g transform="translate(1216.8,274.76) scale(1.9625) rotate(0)"><path fill-rule="evenodd" clip-rule="evenodd" d="M10 20C15.5228 20 20 15.5228 20 10C20 4.47715 15.5228 0 10 0C4.47715 0 0 4.47715 0 10C0 15.5228 4.47715 20 10 20ZM10 17C13.866 17 17 13.866 17 10C17 6.13401 13.866 3 10 3C6.13401 3 3 6.13401 3 10C3 13.866 6.13401 17 10 17Z" fill="#fef8e7"/></g><rect x="1256.0470588235294" y="235.50882352941176" width="78.50294117647059" height="78.50294117647059" fill="#ffffff"/><rect x="1256.05" y="235.51" width="39.25" height="39.25" fill="#fde9b5"/><g transform="translate(1256.05,235.51) scale(1.9625) rotate(0)"><path fill-rule="evenodd" clip-rule="evenodd" d="M10 20C15.5228 20 20 15.5228 20 10C20 4.47715 15.5228 0 10 0C4.47715 0 0 4.47715 0 10C0 15.5228 4.47715 20 10 20ZM10 17C13.866 17 17 13.866 17 10C17 6.13401 13.866 3 10 3C6.13401 3 3 6.13401 3 10C3 13.866 6.13401 17 10 17Z" fill="#f7b306"/></g><rect x="1295.3" y="235.51" width="39.25" height="39.25" fill="#2e3bff"/><g transform="translate(1295.3,235.51) scale(1.9625) rotate(0)"><path d="M10 0L20 10L10 20L0 10L10 0Z" fill="#b1b6ff"/></g><rect x="1256.05" y="274.76" width="39.25" height="39.25" fill="#fffffe"/><g transform="translate(1256.05,274.76) scale(1.9625) rotate(0)"><path d="M10 5L5 0L0 5L5 10L0 15L5 20L10 15L15 20L20 15L15 10L20 5L15 0L10 5Z" fill="#f1f2ff"/></g><rect x="1295.3" y="274.76" width="39.25" height="39.25" fill="#fcde94"/><g transform="translate(1295.3,274.76) scale(1.9625) rotate(0)"><path d="M10 0L20 10L10 20L0 10L10 0Z" fill="#535eff"/></g><rect x="0" y="314.01" width="78.5" height="78.5" fill="#fffcf6"/><g transform="translate(0,314.01) scale(3.925) rotate(0)"><path d="M10 0L20 10L10 20L0 10L10 0Z" fill="#606aff"/></g><rect x="78.5" y="314.01" width="78.5" height="78.5" fill="#e6e7ff"/><g transform="translate(78.5,314.01) scale(3.925) rotate(0)"><rect width="20" height="2" fill="#d1d4ff"/><rect y="4" width="20" height="2" fill="#d1d4ff"/><rect y="8" width="20" height="2" fill="#d1d4ff"/><rect y="12" width="20" height="2" fill="#d1d4ff"/><rect y="16" width="20" height="2" fill="#d1d4ff"/></g><rect x="157.01" y="314.01" width="78.5" height="78.5" fill="#face5e"/><g transform="translate(157.01,314.01) scale(3.925) rotate(0)"><path d="M10 0L20 10L10 20L0 10L10 0Z" fill="#f3f4ff"/></g><rect x="235.51" y="314.01" width="78.5" height="78.5" fill="#fffefd"/><g transform="translate(235.51,314.01) scale(3.925) rotate(0)"><path d="M10 0L20 10L10 20L0 10L10 0Z" fill="#fcdf95"/></g><rect x="314.01" y="314.01" width="78.5" height="78.5" fill="#f4f5ff"/><g transform="translate(314.01,314.01) scale(3.925) rotate(0)"><path fill-rule="evenodd" clip-rule="evenodd" d="M10 20C15.5228 20 20 15.5228 20 10C20 4.47715 15.5228 0 10 0C4.47715 0 0 4.47715 0 10C0 15.5228 4.47715 20 10 20ZM10 17C13.866 17 17 13.866 17 10C17 6.13401 13.866 3 10 3C6.13401 3 3 6.13401 3 10C3 13.866 6.13401 17 10 17Z" fill="#d5d8ff"/></g><rect x="392.51" y="314.01" width="78.5" height="78.5" fill="#fce3a3"/><g transform="translate(392.51,314.01) scale(3.925) rotate(0)"><rect width="20" height="2" fill="#6d77ff"/><rect y="4" width="20" height="2" fill="#6d77ff"/><rect y="8" width="20" height="2" fill="#6d77ff"/><rect y="12" width="20" height="2" fill="#6d77ff"/><rect y="16" width="20" height="2" fill="#6d77ff"/></g><rect x="471.02" y="314.01" width="78.5" height="78.5" fill="#f7b50b"/><g transform="translate(471.02,314.01) scale(3.925) rotate(0)"><rect width="20" height="2" fill="#5a65ff"/><rect y="4" width="20" height="2" fill="#5a65ff"/><rect y="8" width="20" height="2" fill="#5a65ff"/><rect y="12" width="20" height="2" fill="#5a65ff"/><rect y="16" width="20" height="2" fill="#5a65ff"/></g><rect x="549.5205882352941" y="314.01176470588234" width="78.50294117647059" height="78.50294117647059" fill="#ffffff"/><rect x="549.52" y="314.01" width="39.25" height="39.25" fill="#f8c030"/><g transform="translate(549.52,314.01) scale(1.9625) rotate(0)"><path d="M10 5L5 0L0 5L5 10L0 15L5 20L10 15L15 20L20 15L15 10L20 5L15 0L10 5Z" fill="#959cff"/></g><rect x="588.77" y="314.01" width="39.25" height="39.25" fill="#f4f5ff"/><g transform="translate(588.77,314.01) scale(1.9625) rotate(0)"><path d="M10 5L5 0L0 5L5 10L0 15L5 20L10 15L15 20L20 15L15 10L20 5L15 0L10 5Z" fill="#feffff"/></g><rect x="549.52" y="353.26" width="39.25" height="39.25" fill="#f8c02f"/><g transform="translate(549.52,353.26) scale(1.9625) rotate(0)"><path fill-rule="evenodd" clip-rule="evenodd" d="M10 20C15.5228 20 20 15.5228 20 10C20 4.47715 15.5228 0 10 0C4.47715 0 0 4.47715 0 10C0 15.5228 4.47715 20 10 20ZM10 17C13.866 17 17 13.866 17 10C17 6.13401 13.866 3 10 3C6.13401 3 3 6.13401 3 10C3 13.866 6.13401 17 10 17Z" fill="#fef9ec"/></g><rect x="588.77" y="353.26" width="39.25" height="39.25" fill="#5762ff"/><g transform="translate(588.77,353.26) scale(1.9625) rotate(0)"><rect width="20" height="2" fill="#c0c4ff"/><rect y="4" width="20" height="2" fill="#c0c4ff"/><rect y="8" width="20" height="2" fill="#c0c4ff"/><rect y="12" width="20" height="2" fill="#c0c4ff"/><rect y="16" width="20" height="2" fill="#c0c4ff"/></g><rect x="628.02" y="314.01" width="78.5" height="78.5" fill="#d1d4ff"/><g transform="translate(628.02,314.01) scale(3.925) rotate(0)"><path fill-rule="evenodd" clip-rule="evenodd" d="M10 20C15.5228 20 20 15.5228 20 10C20 4.47715 15.5228 0 10 0C4.47715 0 0 4.47715 0 10C0 15.5228 4.47715 20 10 20ZM10 17C13.866 17 17 13.866 17 10C17 6.13401 13.866 3 10 3C6.13401 3 3 6.13401 3 10C3 13.866 6.13401 17 10 17Z" fill="#fce2a1"/></g><rect x="706.53" y="314.01" width="78.5" height="78.5" fill="#f9c43d"/><g transform="translate(706.53,314.01) scale(3.925) rotate(0)"><path d="M10 0L20 10L10 20L0 10L10 0Z" fill="#b0b6ff"/></g><rect x="785.03" y="314.01" width="78.5" height="78.5" fill="#5560ff"/><g transform="translate(785.03,314.01) scale(3.925) rotate(0)"><path d="M10 0L20 10L10 20L0 10L10 0Z" fill="#facb53"/></g><rect x="863.5323529411764" y="314.01176470588234" width="78.50294117647059" height="78.50294117647059" fill="#ffffff"/><rect x="863.53" y="314.01" width="39.25" height="39.25" fill="#dddfff"/><g transform="translate(863.53,314.01) scale(1.9625) rotate(0)"><path d="M10 5L5 0L0 5L5 10L0 15L5 20L10 15L15 20L20 15L15 10L20 5L15 0L10 5Z" fill="#fbd574"/></g><rect x="902.78" y="314.01" width="39.25" height="39.25" fill="#4652ff"/><g transform="translate(902.78,314.01) scale(1.9625) rotate(0)"><path fill-rule="evenodd" clip-rule="evenodd" d="M10 20C15.5228 20 20 15.5228 20 10C20 4.47715 15.5228 0 10 0C4.47715 0 0 4.47715 0 10C0 15.5228 4.47715 20 10 20ZM10 17C13.866 17 17 13.866 17 10C17 6.13401 13.866 3 10 3C6.13401 3 3 6.13401 3 10C3 13.866 6.13401 17 10 17Z" fill="#eceeff"/></g><rect x="863.53" y="353.26" width="39.25" height="39.25" fill="#f5f6ff"/><g transform="translate(863.53,353.26) scale(1.9625) rotate(0)"><rect width="20" height="2" fill="#fbd679"/><rect y="4" width="20" height="2" fill="#fbd679"/><rect y="8" width="20" height="2" fill="#fbd679"/><rect y="12" width="20" height="2" fill="#fbd679"/><rect y="16" width="20" height="2" fill="#fbd679"/></g><rect x="902.78" y="353.26" width="39.25" height="39.25" fill="#9097ff"/><g transform="translate(902.78,353.26) scale(1.9625) rotate(0)"><path d="M10 0L20 10L10 20L0 10L10 0Z" fill="#fbdb89"/></g><rect x="942.035294117647" y="314.01176470588234" width="78.50294117647059" height="78.50294117647059" fill="#ffffff"/><rect x="942.04" y="314.01" width="39.25" height="39.25" fill="#fbdd8e"/><g transform="translate(942.04,314.01) scale(1.9625) rotate(0)"><rect width="20" height="2" fill="#fad36e"/><rect y="4" width="20" height="2" fill="#fad36e"/><rect y="8" width="20" height="2" fill="#fad36e"/><rect y="12" width="20" height="2" fill="#fad36e"/><rect y="16" width="20" height="2" fill="#fad36e"/></g><rect x="981.29" y="314.01" width="39.25" height="39.25" fill="#6e78ff"/><g transform="translate(981.29,314.01) scale(1.9625) rotate(0)"><path fill-rule="evenodd" clip-rule="evenodd" d="M10 20C15.5228 20 20 15.5228 20 10C20 4.47715 15.5228 0 10 0C4.47715 0 0 4.47715 0 10C0 15.5228 4.47715 20 10 20ZM10 17C13.866 17 17 13.866 17 10C17 6.13401 13.866 3 10 3C6.13401 3 3 6.13401 3 10C3 13.866 6.13401 17 10 17Z" fill="#9199ff"/></g><rect x="942.04" y="353.26" width="39.25" height="39.25" fill="#5c66ff"/><g transform="translate(942.04,353.26) scale(1.9625) rotate(0)"><path d="M10 5L5 0L0 5L5 10L0 15L5 20L10 15L15 20L20 15L15 10L20 5L15 0L10 5Z" fill="#f7b60e"/></g><rect x="981.29" y="353.26" width="39.25" height="39.25" fill="#848cff"/><g transform="translate(981.29,353.26) scale(1.9625) rotate(0)"><path d="M10 0L20 10L10 20L0 10L10 0Z" fill="#fef1d2"/></g><rect x="1020.54" y="314.01" width="78.5" height="78.5" fill="#838bff"/><g transform="translate(1020.54,314.01) scale(3.925) rotate(0)"><rect width="20" height="2" fill="#9198ff"/><rect y="4" width="20" height="2" fill="#9198ff"/><rect y="8" width="20" height="2" fill="#9198ff"/><rect y="12" width="20" height="2" fill="#9198ff"/><rect y="16" width="20" height="2" fill="#9198ff"/></g><rect x="1099.04" y="314.01" width="78.5" height="78.5" fill="#fce3a2"/><g transform="translate(1099.04,314.01) scale(3.925) rotate(0)"><rect width="20" height="2" fill="#fef2d6"/><rect y="4" width="20" height="2" fill="#fef2d6"/><rect y="8" width="20" height="2" fill="#fef2d6"/><rect y="12" width="20" height="2" fill="#fef2d6"/><rect y="16" width="20" height="2" fill="#fef2d6"/></g><rect x="1177.54" y="314.01" width="78.5" height="78.5" fill="#8890ff"/><g transform="translate(1177.54,314.01) scale(3.925) rotate(0)"><rect width="20" height="2" fill="#fad064"/><rect y="4" width="20" height="2" fill="#fad064"/><rect y="8" width="20" height="2" fill="#fad064"/><rect y="12" width="20" height="2" fill="#fad064"/><rect y="16" width="20" height="2" fill="#fad064"/></g><rect x="1256.05" y="314.01" width="78.5" height="78.5" fill="#7f88ff"/><g transform="translate(1256.05,314.01) scale(3.925) rotate(0)"><path d="M10 5L5 0L0 5L5 10L0 15L5 20L10 15L15 20L20 15L15 10L20 5L15 0L10 5Z" fill="#facb54"/></g><rect x="0" y="392.51" width="78.5" height="78.5" fill="#fdeec7"/><g transform="translate(0,392.51) scale(3.925) rotate(0)"><path d="M10 5L5 0L0 5L5 10L0 15L5 20L10 15L15 20L20 15L15 10L20 5L15 0L10 5Z" fill="#fefaee"/></g><rect x="78.5" y="392.51" width="78.5" height="78.5" fill="#fefaef"/><g transform="translate(78.5,392.51) scale(3.925) rotate(0)"><rect width="20" height="2" fill="#facd5a"/><rect y="4" width="20" height="2" fill="#facd5a"/><rect y="8" width="20" height="2" fill="#facd5a"/><rect y="12" width="20" height="2" fill="#facd5a"/><rect y="16" width="20" height="2" fill="#facd5a"/></g><rect x="157.01" y="392.51" width="78.5" height="78.5" fill="#4854ff"/><g transform="translate(157.01,392.51) scale(3.925) rotate(0)"><path fill-rule="evenodd" clip-rule="evenodd" d="M10 20C15.5228 20 20 15.5228 20 10C20 4.47715 15.5228 0 10 0C4.47715 0 0 4.47715 0 10C0 15.5228 4.47715 20 10 20ZM10 17C13.866 17 17 13.866 17 10C17 6.13401 13.866 3 10 3C6.13401 3 3 6.13401 3 10C3 13.866 6.13401 17 10 17Z" fill="#8d94ff"/></g><rect x="235.51" y="392.51" width="78.5" height="78.5" fill="#323fff"/><g transform="translate(235.51,392.51) scale(3.925) rotate(0)"><path d="M10 0L20 10L10 20L0 10L10 0Z" fill="#6670ff"/></g><rect x="314.01" y="392.51" width="78.5" height="78.5" fill="#7f88ff"/><g transform="translate(314.01,392.51) scale(3.925) rotate(0)"><path fill-rule="evenodd" clip-rule="evenodd" d="M10 20C15.5228 20 20 15.5228 20 10C20 4.47715 15.5228 0 10 0C4.47715 0 0 4.47715 0 10C0 15.5228 4.47715 20 10 20ZM10 17C13.866 17 17 13.866 17 10C17 6.13401 13.866 3 10 3C6.13401 3 3 6.13401 3 10C3 13.866 6.13401 17 10 17Z" fill="#b7bcff"/></g><rect x="392.51" y="392.51" width="78.5" height="78.5" fill="#fbdd8f"/><g transform="translate(392.51,392.51) scale(3.925) rotate(0)"><path d="M10 5L5 0L0 5L5 10L0 15L5 20L10 15L15 20L20 15L15 10L20 5L15 0L10 5Z" fill="#facd5a"/></g><rect x="471.02" y="392.51" width="78.5" height="78.5" fill="#6670ff"/><g transform="translate(471.02,392.51) scale(3.925) rotate(0)"><path fill-rule="evenodd" clip-rule="evenodd" d="M10 20C15.5228 20 20 15.5228 20 10C20 4.47715 15.5228 0 10 0C4.47715 0 0 4.47715 0 10C0 15.5228 4.47715 20 10 20ZM10 17C13.866 17 17 13.866 17 10C17 6.13401 13.866 3 10 3C6.13401 3 3 6.13401 3 10C3 13.866 6.13401 17 10 17Z" fill="#caceff"/></g><rect x="549.52" y="392.51" width="78.5" height="78.5" fill="#fdfdff"/><g transform="translate(549.52,392.51) scale(3.925) rotate(0)"><path fill-rule="evenodd" clip-rule="evenodd" d="M10 20C15.5228 20 20 15.5228 20 10C20 4.47715 15.5228 0 10 0C4.47715 0 0 4.47715 0 10C0 15.5228 4.47715 20 10 20ZM10 17C13.866 17 17 13.866 17 10C17 6.13401 13.866 3 10 3C6.13401 3 3 6.13401 3 10C3 13.866 6.13401 17 10 17Z" fill="#7e86ff"/></g><rect x="628.0235294117647" y="392.5147058823529" width="78.50294117647059" height="78.50294117647059" fill="#ffffff"/><rect x="628.02" y="392.51" width="39.25" height="39.25" fill="#dee0ff"/><g transform="translate(628.02,392.51) scale(1.9625) rotate(0)"><path d="M10 0L20 10L10 20L0 10L10 0Z" fill="#414eff"/></g><rect x="667.28" y="392.51" width="39.25" height="39.25" fill="#f8bf2c"/><g transform="translate(667.28,392.51) scale(1.9625) rotate(0)"><path d="M10 0L20 10L10 20L0 10L10 0Z" fill="#3d49ff"/></g><rect x="628.02" y="431.77" width="39.25" height="39.25" fill="#fef9ec"/><g transform="translate(628.02,431.77) scale(1.9625) rotate(0)"><path d="M10 0L20 10L10 20L0 10L10 0Z" fill="#848cff"/></g><rect x="667.28" y="431.77" width="39.25" height="39.25" fill="#fef3d7"/><g transform="translate(667.28,431.77) scale(1.9625) rotate(0)"><path d="M10 5L5 0L0 5L5 10L0 15L5 20L10 15L15 20L20 15L15 10L20 5L15 0L10 5Z" fill="#fdeec8"/></g><rect x="706.53" y="392.51" width="78.5" height="78.5" fill="#a6acff"/><g transform="translate(706.53,392.51) scale(3.925) rotate(0)"><path fill-rule="evenodd" clip-rule="evenodd" d="M10 20C15.5228 20 20 15.5228 20 10C20 4.47715 15.5228 0 10 0C4.47715 0 0 4.47715 0 10C0 15.5228 4.47715 20 10 20ZM10 17C13.866 17 17 13.866 17 10C17 6.13401 13.866 3 10 3C6.13401 3 3 6.13401 3 10C3 13.866 6.13401 17 10 17Z" fill="#e4e6ff"/></g><rect x="785.0294117647059" y="392.5147058823529" width="78.50294117647059" height="78.50294117647059" fill="#ffffff"/><rect x="785.03" y="392.51" width="39.25" height="39.25" fill="#868dff"/><g transform="translate(785.03,392.51) scale(1.9625) rotate(0)"><path d="M10 5L5 0L0 5L5 10L0 15L5 20L10 15L15 20L20 15L15 10L20 5L15 0L10 5Z" fill="#f9c236"/></g><rect x="824.28" y="392.51" width="39.25" height="39.25" fill="#f8c031"/><g transform="translate(824.28,392.51) scale(1.9625) rotate(0)"><path fill-rule="evenodd" clip-rule="evenodd" d="M10 20C15.5228 20 20 15.5228 20 10C20 4.47715 15.5228 0 10 0C4.47715 0 0 4.47715 0 10C0 15.5228 4.47715 20 10 20ZM10 17C13.866 17 17 13.866 17 10C17 6.13401 13.866 3 10 3C6.13401 3 3 6.13401 3 10C3 13.866 6.13401 17 10 17Z" fill="#a9afff"/></g><rect x="785.03" y="431.77" width="39.25" height="39.25" fill="#4f5aff"/><g transform="translate(785.03,431.77) scale(1.9625) rotate(0)"><path d="M10 0L20 10L10 20L0 10L10 0Z" fill="#a8aeff"/></g><rect x="824.28" y="431.77" width="39.25" height="39.25" fill="#6771ff"/><g transform="translate(824.28,431.77) scale(1.9625) rotate(0)"><rect width="20" height="2" fill="#f9c541"/><rect y="4" width="20" height="2" fill="#f9c541"/><rect y="8" width="20" height="2" fill="#f9c541"/><rect y="12" width="20" height="2" fill="#f9c541"/><rect y="16" width="20" height="2" fill="#f9c541"/></g><rect x="863.53" y="392.51" width="78.5" height="78.5" fill="#f9c645"/><g transform="translate(863.53,392.51) scale(3.925) rotate(0)"><path d="M10 0L20 10L10 20L0 10L10 0Z" fill="#434fff"/></g><rect x="942.04" y="392.51" width="78.5" height="78.5" fill="#fce4a7"/><g transform="translate(942.04,392.51) scale(3.925) rotate(0)"><path d="M10 0L20 10L10 20L0 10L10 0Z" fill="#fad065"/></g><rect x="1020.54" y="392.51" width="78.5" height="78.5" fill="#8c93ff"/><g transform="translate(1020.54,392.51) scale(3.925) rotate(0)"><path d="M10 5L5 0L0 5L5 10L0 15L5 20L10 15L15 20L20 15L15 10L20 5L15 0L10 5Z" fill="#face5d"/></g><rect x="1099.0411764705882" y="392.5147058823529" width="78.50294117647059" height="78.50294117647059" fill="#ffffff"/><rect x="1099.04" y="392.51" width="39.25" height="39.25" fill="#f8bc22"/><g transform="translate(1099.04,392.51) scale(1.9625) rotate(0)"><rect width="20" height="2" fill="#fcdf97"/><rect y="4" width="20" height="2" fill="#fcdf97"/><rect y="8" width="20" height="2" fill="#fcdf97"/><rect y="12" width="20" height="2" fill="#fcdf97"/><rect y="16" width="20" height="2" fill="#fcdf97"/></g><rect x="1138.29" y="392.51" width="39.25" height="39.25" fill="#facc57"/><g transform="translate(1138.29,392.51) scale(1.9625) rotate(0)"><path d="M10 5L5 0L0 5L5 10L0 15L5 20L10 15L15 20L20 15L15 10L20 5L15 0L10 5Z" fill="#5762ff"/></g><rect x="1099.04" y="431.77" width="39.25" height="39.25" fill="#424eff"/><g transform="translate(1099.04,431.77) scale(1.9625) rotate(0)"><path d="M10 0L20 10L10 20L0 10L10 0Z" fill="#3542ff"/></g><rect x="1138.29" y="431.77" width="39.25" height="39.25" fill="#2e3cff"/><g transform="translate(1138.29,431.77) scale(1.9625) rotate(0)"><path d="M10 5L5 0L0 5L5 10L0 15L5 20L10 15L15 20L20 15L15 10L20 5L15 0L10 5Z" fill="#fbdb88"/></g><rect x="1177.54" y="392.51" width="78.5" height="78.5" fill="#fef6e2"/><g transform="translate(1177.54,392.51) scale(3.925) rotate(0)"><path fill-rule="evenodd" clip-rule="evenodd" d="M10 20C15.5228 20 20 15.5228 20 10C20 4.47715 15.5228 0 10 0C4.47715 0 0 4.47715 0 10C0 15.5228 4.47715 20 10 20ZM10 17C13.866 17 17 13.866 17 10C17 6.13401 13.866 3 10 3C6.13401 3 3 6.13401 3 10C3 13.866 6.13401 17 10 17Z" fill="#4753ff"/></g><rect x="1256.0470588235294" y="392.5147058823529" width="78.50294117647059" height="78.50294117647059" fill="#ffffff"/><rect x="1256.05" y="392.51" width="39.25" height="39.25" fill="#b2b7ff"/><g transform="translate(1256.05,392.51) scale(1.9625) rotate(0)"><path fill-rule="evenodd" clip-rule="evenodd" d="M10 20C15.5228 20 20 15.5228 20 10C20 4.47715 15.5228 0 10 0C4.47715 0 0 4.47715 0 10C0 15.5228 4.47715 20 10 20ZM10 17C13.866 17 17 13.866 17 10C17 6.13401 13.866 3 10 3C6.13401 3 3 6.13401 3 10C3 13.866 6.13401 17 10 17Z" fill="#f9c134"/></g><rect x="1295.3" y="392.51" width="39.25" height="39.25" fill="#f9c33b"/><g transform="translate(1295.3,392.51) scale(1.9625) rotate(0)"><path fill-rule="evenodd" clip-rule="evenodd" d="M10 20C15.5228 20 20 15.5228 20 10C20 4.47715 15.5228 0 10 0C4.47715 0 0 4.47715 0 10C0 15.5228 4.47715 20 10 20ZM10 17C13.866 17 17 13.866 17 10C17 6.13401 13.866 3 10 3C6.13401 3 3 6.13401 3 10C3 13.866 6.13401 17 10 17Z" fill="#b2b7ff"/></g><rect x="1256.05" y="431.77" width="39.25" height="39.25" fill="#fbdb8a"/><g transform="translate(1256.05,431.77) scale(1.9625) rotate(0)"><rect width="20" height="2" fill="#fef1d1"/><rect y="4" width="20" height="2" fill="#fef1d1"/><rect y="8" width="20" height="2" fill="#fef1d1"/><rect y="12" width="20" height="2" fill="#fef1d1"/><rect y="16" width="20" height="2" fill="#fef1d1"/></g><rect x="1295.3" y="431.77" width="39.25" height="39.25" fill="#c8cbff"/><g transform="translate(1295.3,431.77) scale(1.9625) rotate(0)"><path d="M10 0L20 10L10 20L0 10L10 0Z" fill="#c4c8ff"/></g></g></svg>